<svg width="26" height="27" viewBox="0 0 26 27" fill="none" xmlns="http://www.w3.org/2000/svg">
<g clip-path="url(#clip0_6140_22606)">
<path d="M21.0092 10.0434C19.8171 7.53996 17.858 6.07765 15.0627 5.72908C14.1622 5.61678 14.1521 5.63689 14.1441 4.75632C14.1349 3.74612 14.1441 2.73578 14.1377 1.72555C14.1362 1.48396 14.2433 1.41364 14.4804 1.42262C16.2211 1.48859 17.894 1.8417 19.45 2.6128C20.9704 3.36622 22.2969 4.37379 23.3645 5.68371C25.1928 7.92702 26.0192 10.4956 25.951 13.3474C25.9418 13.7321 25.8915 14.1171 25.8402 14.4995C25.7708 15.0159 25.7625 15.0158 25.2406 15.0157C23.5985 15.0154 21.9564 15.0135 20.3143 15.0138C18.4043 15.014 16.4943 15.0168 14.5843 15.0165C14.1383 15.0165 14.1516 15.0129 14.1512 14.5815C14.1502 13.4473 14.1407 12.3131 14.1253 11.179C14.1206 10.8284 14.1631 10.7727 14.5849 10.7719C16.425 10.768 18.2651 10.7676 20.1052 10.7659C20.3497 10.7657 20.5943 10.7651 20.8388 10.7646C21.2412 10.7637 21.2741 10.7193 21.1385 10.351C21.1032 10.255 21.0595 10.1618 21.0092 10.0434Z" fill="#F49C32"/>
<path d="M19.5947 20.6222C20.5269 21.5263 21.4333 22.4227 22.3496 23.3094C22.5451 23.4986 22.4929 23.6168 22.3171 23.7799C20.498 25.4684 18.3538 26.4998 15.8613 26.8203C12.3606 27.2703 9.21942 26.4186 6.54171 24.179C4.39521 22.3837 3.07749 20.0853 2.62221 17.3395C2.53487 16.8127 2.45032 16.2884 2.44922 15.7529C2.44874 15.5158 2.50203 15.4011 2.79017 15.4318C3.48633 15.5061 4.18505 15.4173 4.88308 15.4141C5.42956 15.4116 5.97489 15.4864 6.52176 15.4284C6.74527 15.4048 6.7892 15.5468 6.8013 15.7279C6.84218 16.3399 6.92084 16.9419 7.10905 17.5354C7.51485 18.8148 8.21426 19.9027 9.22054 20.8081C10.4038 21.8728 11.794 22.5029 13.3939 22.6711C15.6424 22.9076 17.587 22.2433 19.2432 20.7519C19.3358 20.6686 19.419 20.5608 19.5947 20.6222Z" fill="#F49C32"/>
<path d="M1.0298 6.12626C2.42746 3.30967 4.61978 1.43002 7.66891 0.503227C8.57861 0.226721 9.50872 0.126202 10.4497 0.0646372C10.7028 0.0480766 10.8476 0.124629 10.8429 0.404267C10.8329 1.00621 10.8333 1.60848 10.8411 2.21047C10.8447 2.48937 10.7177 2.57687 10.4395 2.59082C7.95403 2.71551 6.01772 3.85035 4.47728 5.70332C3.73442 6.59689 3.20204 7.5998 2.87014 8.70036C2.7161 9.21115 2.61876 9.73965 2.61722 10.2731C2.6165 10.5215 2.51164 10.609 2.29516 10.6085C1.64345 10.6071 0.991783 10.593 0.340066 10.5896C0.0794987 10.5882 0.0397939 10.4364 0.0454078 10.2291C0.0773381 9.05047 0.313447 7.91101 0.73206 6.80699C0.81664 6.58392 0.922861 6.36866 1.0298 6.12626Z" fill="#FFC45C"/>
<path d="M9.16067 4.084C9.61357 4.00632 10.0365 3.93542 10.4686 3.91529C10.7196 3.9036 10.8437 3.9731 10.84 4.23047C10.8342 4.6279 10.8335 5.0256 10.8421 5.42294C10.8468 5.64263 10.7442 5.72222 10.5286 5.73308C8.34038 5.84331 6.95762 7.04237 6.08925 8.90321C5.89323 9.32327 5.78405 9.78494 5.81118 10.2582C5.82581 10.5135 5.71284 10.6026 5.4612 10.5951C5.06577 10.5834 4.66972 10.5867 4.27401 10.5906C4.03626 10.593 3.91772 10.5351 3.93772 10.2563C4.11634 7.76648 5.28047 5.88975 7.53891 4.68137C8.04214 4.41212 8.57393 4.21804 9.16067 4.084Z" fill="#FFC45C"/>
<path d="M7.83481 10.6386C7.32849 10.6293 7.27593 10.5928 7.34035 10.1511C7.5802 8.50672 8.72579 7.38099 10.4521 7.20037C10.7439 7.16984 10.8596 7.27596 10.8414 7.56012C10.8241 7.83114 10.9002 8.12918 10.8079 8.36865C10.7034 8.63995 10.3376 8.53278 10.0966 8.62565C9.32733 8.92218 8.84605 9.46452 8.70824 10.2431C8.64869 10.5796 8.51774 10.6656 8.2167 10.6425C8.10097 10.6336 7.98404 10.6396 7.83481 10.6386Z" fill="#FFC45C"/>
</g>
<defs>
<clipPath id="clip0_6140_22606">
<rect width="26" height="27" fill="white"/>
</clipPath>
</defs>
</svg>
