<svg width="19" height="19" viewBox="0 0 19 19" fill="none" xmlns="http://www.w3.org/2000/svg">
<path d="M9.5 12.0312C10.8979 12.0312 12.0312 10.8979 12.0312 9.5C12.0312 8.10208 10.8979 6.96875 9.5 6.96875C8.10208 6.96875 6.96875 8.10208 6.96875 9.5C6.96875 10.8979 8.10208 12.0312 9.5 12.0312Z" stroke="#F49B31" stroke-width="1.2" stroke-miterlimit="10"/>
<path d="M15.4375 12.0312C15.3207 12.2941 15.2862 12.5868 15.3389 12.8697C15.3916 13.1526 15.5289 13.4121 15.7312 13.6125L15.7906 13.6719C15.9538 13.8349 16.0832 14.0285 16.1713 14.2414C16.2594 14.4543 16.3044 14.682 16.3039 14.912C16.3034 15.142 16.2573 15.3696 16.1683 15.5821C16.0793 15.7946 15.949 15.9876 15.7853 16.1503C15.6216 16.313 15.4281 16.4424 15.2152 16.5305C15.0023 16.6186 14.7746 16.6636 14.5446 16.6631C14.3146 16.6626 14.087 16.6165 13.8745 16.5275C13.662 16.4385 13.469 16.3082 13.3063 16.1445L13.2469 16.0852C13.0465 15.8828 12.7871 15.7455 12.5041 15.6928C12.2212 15.6401 11.9285 15.6746 11.6656 15.7914C11.4078 15.9026 11.1893 16.0876 11.0372 16.3237C10.8851 16.5598 10.8063 16.8365 10.8109 17.1187V17.3125C10.8109 17.7767 10.6266 18.2218 10.2984 18.5499C9.97025 18.8781 9.52518 19.0625 9.06094 19.0625C8.59669 19.0625 8.15162 18.8781 7.82344 18.5499C7.49525 18.2218 7.31094 17.7767 7.31094 17.3125V17.2094C7.30945 16.9201 7.22162 16.638 7.05887 16.4003C6.89612 16.1627 6.66604 15.9808 6.39844 15.8781C6.13556 15.7614 5.84288 15.7269 5.55994 15.7796C5.27701 15.8323 5.01757 15.9695 4.81719 16.1719L4.75781 16.2312C4.59513 16.395 4.4022 16.5253 4.18969 16.6143C3.97718 16.7033 3.74957 16.7493 3.51958 16.7499C3.28959 16.7504 3.06176 16.7054 2.84885 16.6173C2.63594 16.5292 2.44243 16.3998 2.27905 16.2371C2.11568 16.0744 1.98528 15.8814 1.89624 15.6689C1.8072 15.4564 1.76122 15.2288 1.76073 14.9988C1.76025 14.7688 1.80527 14.541 1.89339 14.3281C1.98152 14.1152 2.11109 13.9218 2.27437 13.7586L2.33375 13.6992C2.53613 13.4988 2.67345 13.2394 2.72614 12.9564C2.77883 12.6735 2.74433 12.3808 2.6275 12.1179C2.51632 11.8602 2.33137 11.6416 2.09525 11.4895C1.85913 11.3374 1.58239 11.2586 1.30031 11.2633H1.10625C0.642012 11.2633 0.196937 11.0789 -0.131248 10.7508C-0.459434 10.4226 -0.643799 9.97752 -0.643799 9.51328C-0.643799 9.04903 -0.459434 8.60396 -0.131248 8.27578C0.196937 7.94759 0.642012 7.76328 1.10625 7.76328H1.20937C1.49866 7.7618 1.78074 7.67396 2.0184 7.51121C2.25606 7.34847 2.43798 7.11838 2.54063 6.85078C2.65745 6.5879 2.69195 6.29522 2.63926 6.01228C2.58657 5.72935 2.44926 5.46991 2.24687 5.26953L2.1875 5.21015C2.02422 5.04747 1.89465 4.85454 1.80652 4.64203C1.7184 4.42952 1.67338 4.20169 1.67386 3.97171C1.67435 3.74172 1.72033 3.51411 1.80937 3.3016C1.89841 3.08909 2.02881 2.89615 2.19219 2.73339C2.35556 2.57064 2.54907 2.44094 2.76198 2.35265C2.97489 2.26436 3.20272 2.21914 3.43271 2.21942C3.6627 2.2197 3.89031 2.26548 4.10282 2.35428C4.31533 2.44309 4.50827 2.57336 4.67094 2.73734L4.73031 2.79672C4.93069 2.9991 5.19013 3.13642 5.47306 3.18911C5.756 3.24179 6.04868 3.2073 6.31156 3.09047H6.39844C6.65614 2.97929 6.87474 2.79434 7.0269 2.55822C7.17906 2.3221 7.25784 2.04536 7.25312 1.76328V1.5625C7.25312 1.09826 7.43749 0.653186 7.76568 0.325C8.09386 -0.00318577 8.53893 -0.1875 9.00317 -0.1875C9.46742 -0.1875 9.91249 -0.00318577 10.2407 0.325C10.5689 0.653186 10.7531 1.09826 10.7531 1.5625V1.66562C10.7484 1.94771 10.8272 2.22445 10.9793 2.46057C11.1315 2.69669 11.3501 2.88163 11.6078 2.99281C11.8707 3.10964 12.1634 3.14413 12.4463 3.09145C12.7293 3.03876 12.9887 2.90144 13.1891 2.69906L13.2484 2.63968C13.4111 2.4764 13.6041 2.34684 13.8166 2.25871C14.0291 2.17058 14.2569 2.12556 14.4869 2.12604C14.7169 2.12653 14.9445 2.17251 15.157 2.26155C15.3695 2.35059 15.563 2.48098 15.7258 2.64436C15.8891 2.80774 16.0194 3.00124 16.1077 3.21416C16.196 3.42707 16.2412 3.65489 16.2409 3.88488C16.2407 4.11487 16.1949 4.34248 16.1061 4.55499C16.0173 4.7675 15.887 4.96044 15.723 5.12312L15.6636 5.1825C15.4613 5.38288 15.3239 5.64231 15.2713 5.92525C15.2186 6.20818 15.2531 6.50087 15.3699 6.76375V6.85062C15.4811 7.10833 15.666 7.32693 15.9021 7.47909C16.1383 7.63125 16.415 7.71002 16.6971 7.70531H16.8977C17.3619 7.70531 17.807 7.88967 18.1352 8.21786C18.4633 8.54604 18.6477 8.99112 18.6477 9.45536C18.6477 9.91961 18.4633 10.3647 18.1352 10.6929C17.807 11.021 17.3619 11.2054 16.8977 11.2054H16.7945C16.5124 11.2101 16.2357 11.2889 15.9996 11.4411C15.7635 11.5932 15.5785 11.8118 15.4673 12.0695L15.4375 12.0312Z" stroke="#F49B31" stroke-width="1.2" stroke-linecap="round" stroke-linejoin="round"/>
</svg>
